<?xml version="1.0" standalone="no"?>
<!DOCTYPE svg PUBLIC "-//W3C//DTD SVG 20010904//EN"
 "http://www.w3.org/TR/2001/REC-SVG-20010904/DTD/svg10.dtd">
<svg version="1.0" xmlns="http://www.w3.org/2000/svg"
 width="512.000000pt" height="512.000000pt" viewBox="0 0 512.000000 512.000000"
 preserveAspectRatio="xMidYMid meet">
<metadata>
Created by potrace 1.14, written by Peter Selinger 2001-2017
</metadata>
<g transform="translate(0.000000,512.000000) scale(0.100000,-0.100000)"
fill="#000000" stroke="none">
<path d="M3628 5100 c-76 -24 -108 -43 -172 -101 -59 -54 -93 -103 -123 -179
-17 -42 -18 -142 -23 -1665 -3 -891 -9 -1632 -13 -1646 -49 -181 -107 -284
-221 -396 -67 -65 -103 -91 -178 -127 -51 -25 -120 -53 -153 -62 -86 -22 -254
-26 -340 -7 -190 40 -364 160 -470 323 -102 159 -123 250 -125 542 0 116 -6
233 -12 262 -9 46 -41 126 -60 151 -94 129 -211 194 -359 201 -132 6 -240 -36
-335 -131 -62 -62 -105 -137 -123 -216 -18 -77 -11 -528 10 -649 26 -151 27
-155 65 -269 124 -373 381 -694 719 -897 88 -53 236 -121 335 -153 179 -57
304 -76 525 -76 167 0 240 8 375 40 289 70 558 223 775 440 233 233 383 511
457 848 l23 102 3 1649 c3 1809 6 1694 -55 1808 -33 61 -124 148 -189 181 -97
49 -231 60 -336 27z"/>
</g>
</svg>
